<svg xmlns="http://www.w3.org/2000/svg" viewBox="0 0 512 512" role="img" aria-label="webkubor logo">
  <defs>
    <linearGradient id="ion" x1="0" y1="0" x2="1" y2="1">
      <stop offset="0%" stop-color="#20c4b6" />
      <stop offset="55%" stop-color="#4fe0d2" />
      <stop offset="100%" stop-color="#ff8a3d" />
    </linearGradient>
    <radialGradient id="glow" cx="50%" cy="50%" r="50%">
      <stop offset="0%" stop-color="#4fe0d2" stop-opacity="0.6" />
      <stop offset="100%" stop-color="#4fe0d2" stop-opacity="0" />
    </radialGradient>
  </defs>
  <rect x="32" y="32" width="448" height="448" rx="96" fill="#121416" />
  <circle cx="256" cy="256" r="180" fill="url(#glow)" />
  <path
    d="M256 130c69.1 0 126 56.9 126 126s-56.9 126-126 126-126-56.9-126-126 56.9-126 126-126zm0 44c-45.1 0-82 36.9-82 82s36.9 82 82 82 82-36.9 82-82-36.9-82-82-82z"
    fill="url(#ion)"
  />
  <g fill="#eaf7f6">
    <circle cx="256" cy="256" r="10" />
    <circle cx="256" cy="166" r="8" />
    <circle cx="336" cy="256" r="8" />
    <circle cx="256" cy="346" r="8" />
    <circle cx="176" cy="256" r="8" />
  </g>
  <g stroke="#20c4b6" stroke-width="8" stroke-linecap="round" opacity="0.7">
    <path d="M256 176v-32" />
    <path d="M336 256h32" />
    <path d="M256 336v32" />
    <path d="M176 256h-32" />
  </g>
</svg>
